<svg id="eH81jnPsCYm1" xmlns="http://www.w3.org/2000/svg" xmlns:xlink="http://www.w3.org/1999/xlink" viewBox="0 0 448 512" shape-rendering="geometricPrecision" text-rendering="geometricPrecision"><path d="M472.581697,147.095009h-426.462801c-6.665493,0-12.069702-5.493377-12.069702-12.268849v-32.716931c0-6.775472,5.404209-12.268849,12.069702-12.268849h426.462801c6.665493,0,12.069702,5.493377,12.069702,12.268849v32.716931c0,6.775472-5.404209,12.268849-12.069702,12.268849Zm0,163.584655h-426.462801c-6.665493,0-12.069702-5.493377-12.069702-12.268849v-32.716931c0-6.775472,5.404209-12.268849,12.069702-12.268849h426.462801c6.665493,0,12.069702,5.493377,12.069702,12.268849v32.716931c0,6.775472-5.404209,12.268849-12.069702,12.268849Zm0,163.584655h-426.462801c-6.665493,0-12.069702-5.493377-12.069702-12.268849v-32.716931c0-6.775472,5.404209-12.268849,12.069702-12.268849h426.462801c6.665493,0,12.069702,5.493377,12.069702,12.268849v32.716931c0,6.775472-5.404209,12.268849-12.069702,12.268849Z" transform="translate(-36.651399-24.446059)" fill="#a52a2a"/></svg>