<?xml version="1.0" encoding="iso-8859-1"?>
<!-- Generator: Adobe Illustrator 19.0.0, SVG Export Plug-In . SVG Version: 6.00 Build 0)  -->
<svg version="1.1" id="Layer_1" xmlns="http://www.w3.org/2000/svg" xmlns:xlink="http://www.w3.org/1999/xlink" x="0px" y="0px"
	 viewBox="0 0 485 485" style="enable-background:new 0 0 485 485;" xml:space="preserve">
<g>
	<path d="M382.702,351.4c-24.813,0-45.001,20.187-45.001,45c0,24.813,20.188,45,45.001,45s45-20.187,45-45
		C427.702,371.587,407.516,351.4,382.702,351.4z M382.702,411.4c-8.271,0-15.001-6.729-15.001-15c0-8.271,6.729-15,15.001-15
		s15,6.729,15,15C397.702,404.671,390.974,411.4,382.702,411.4z"/>
	<path d="M382.702,110.898c-19.3,0-35.001,15.701-35.001,35s15.701,35,35.001,35c19.299,0,35-15.701,35-35
		S402.001,110.898,382.702,110.898z"/>
	<path d="M382.701,43.6c-56.407,0-102.298,45.891-102.298,102.298c0,23.226,7.618,45.137,22.059,63.396l80.239,100.884
		l80.267-100.917C477.381,191.034,485,169.124,485,145.897C485,89.49,439.109,43.6,382.701,43.6z M439.463,190.618l-56.762,71.364
		l-56.734-71.332c-10.182-12.875-15.563-28.35-15.563-44.753c0-39.865,32.433-72.298,72.298-72.298S455,106.032,455,145.897
		C455,162.301,449.618,177.776,439.463,190.618z"/>
	<rect x="167.399" y="381.4" width="40" height="30"/>
	<rect x="222.5" y="381.4" width="40" height="30"/>
	<rect x="277.601" y="381.4" width="40" height="30"/>
	<path d="M137.298,145.898c0-19.299-15.701-35-35-35s-35,15.701-35,35s15.701,35,35,35S137.298,165.197,137.298,145.898z"/>
	<path d="M182.564,209.26c14.414-18.226,22.032-40.137,22.032-63.363c0-56.407-45.891-102.298-102.299-102.298
		C45.891,43.6,0,89.49,0,145.897c0,23.228,7.619,45.138,22.059,63.396l80.239,100.884L182.564,209.26z M30,145.897
		C30,106.032,62.433,73.6,102.298,73.6s72.299,32.433,72.299,72.298c0,16.403-5.382,31.879-15.537,44.721l-56.762,71.364
		L45.563,190.65C35.382,177.777,30,162.302,30,145.897z"/>
	<path d="M102.298,351.4c-24.813,0-45,20.187-45,45c0,24.813,20.187,45,45,45s45.001-20.187,45.001-45
		C147.299,371.587,127.111,351.4,102.298,351.4z M102.298,411.4c-8.271,0-15-6.729-15-15c0-8.271,6.729-15,15-15
		s15.001,6.729,15.001,15C117.299,404.671,110.569,411.4,102.298,411.4z"/>
</g>
<g>
</g>
<g>
</g>
<g>
</g>
<g>
</g>
<g>
</g>
<g>
</g>
<g>
</g>
<g>
</g>
<g>
</g>
<g>
</g>
<g>
</g>
<g>
</g>
<g>
</g>
<g>
</g>
<g>
</g>
</svg>
