<?xml version="1.0" encoding="iso-8859-1"?>
<!-- Generator: Adobe Illustrator 19.0.0, SVG Export Plug-In . SVG Version: 6.00 Build 0)  -->
<svg version="1.1" id="Layer_1" xmlns="http://www.w3.org/2000/svg" xmlns:xlink="http://www.w3.org/1999/xlink" x="0px" y="0px"
	 viewBox="0 0 512 512" style="enable-background:new 0 0 512 512;" xml:space="preserve">
<path style="fill:#9FC7D1;" d="M280,48h-48C124.4,48,36.368,133.416,32.152,240H479.84C475.632,133.416,387.6,48,280,48z
	 M320.168,156.288L263.6,212.856c-1.56,1.56-3.608,2.344-5.656,2.344s-4.096-0.784-5.656-2.344l-56.568-56.568
	c-15.592-15.6-15.592-40.976,0-56.568c15.592-15.6,40.976-15.6,56.568,0l5.656,5.656l5.656-5.656
	c15.592-15.584,40.976-15.592,56.568,0c7.56,7.552,11.72,17.6,11.72,28.288C331.88,138.68,327.72,148.728,320.168,156.288z M392,224
	h-16v-16h16V224z M424,224h-16v-16h16V224z M440,224v-16h16v16H440z"/>
<g>
	<path style="fill:#EEC97B;" d="M166.88,328.472c-2.624,0.656-4.728,2.352-5.928,4.776s-1.272,5.12-0.208,7.608l13.08,35.784
		l53.032,47.936l-18-33.12l-0.832-0.064l0.096-1.28l-31.24-57.48C174.96,329.256,170.816,327.488,166.88,328.472z"/>
	<path style="fill:#EEC97B;" d="M244.736,336.592c0.112-2.264-0.688-4.408-2.248-6.048S238.824,328,236.552,328
		c-4.248,0-7.832,3.32-8.168,7.56l-3.952,51.064l16.312,30.016L244.736,336.592z"/>
	<path style="fill:#EEC97B;" d="M368.568,402.968L338.584,328H320v72c0,3.032-1.712,5.8-4.424,7.16l-80,40
		c-2.944,1.488-6.496,0.992-8.944-1.216l-65.672-59.368l-0.48,0.176l-0.328-0.904l-61.52-55.608
		c-3.52-3.112-8.944-2.96-12.328,0.408c-1.76,1.76-2.696,4.104-2.64,6.6c0.064,2.496,1.112,4.792,2.968,6.464l141.6,129.968
		c4.44,4.08,10.2,6.32,16.232,6.32H392v-72h-16C372.728,408,369.792,406.008,368.568,402.968z"/>
</g>
<path style="fill:#9FC7D1;" d="M344,312h140c6.616,0,12-5.384,12-12s-5.384-12-12-12H28c-6.616,0-12,5.384-12,12s5.384,12,12,12h284
	H344z"/>
<path style="fill:#E87B5A;" d="M274.912,111.024l-11.312,11.32c-3,3-8.312,3-11.312,0l-11.312-11.32
	c-4.68-4.68-10.824-7.016-16.976-7.016s-12.296,2.336-16.976,7.016c-9.352,9.36-9.352,24.584,0,33.944l50.912,50.912l50.912-50.912
	c4.536-4.536,7.032-10.56,7.032-16.976s-2.496-12.44-7.032-16.976C299.488,101.664,284.264,101.664,274.912,111.024z"/>
<path style="fill:#9FC7D1;" d="M408,400v112h104V376h-80C418.768,376,408,386.768,408,400z"/>
<g>
	<path style="fill:#3C4A53;" d="M392.808,392h-11.392l-25.6-64H484c15.44,0,28-12.56,28-28s-12.56-28-28-28H28
		c-15.44,0-28,12.56-28,28s12.56,28,28,28h41.36c-1.168,3.032-1.768,6.28-1.68,9.648c0.168,6.92,3.096,13.288,8.184,17.888
		l141.544,129.928c7.4,6.792,17.008,10.536,27.056,10.536H392v16h8h8V400c0-13.232,10.768-24,24-24h80v-8v-8h-80
		C412.688,360,396.528,373.768,392.808,392z M28,312c-6.616,0-12-5.384-12-12s5.384-12,12-12h456c6.616,0,12,5.384,12,12
		s-5.384,12-12,12H344h-32H28z M259.312,328H304v67.056l-47.328,23.664l4.04-81.328C260.872,334.136,260.376,330.96,259.312,328z
		 M208.12,390.096l-0.096,1.28l0.832,0.064l18,33.12l-53.032-47.936l-13.08-35.784c-1.064-2.488-0.992-5.184,0.208-7.608
		s3.312-4.12,5.928-4.776c3.936-0.984,8.072,0.792,10,4.152L208.12,390.096z M192.576,328h21.336
		c-0.736,2.008-1.304,4.104-1.48,6.328l-2.048,26.448L192.576,328z M224.44,386.624l3.952-51.064c0.328-4.24,3.912-7.56,8.16-7.56
		c2.264,0,4.368,0.904,5.936,2.544c1.56,1.64,2.352,3.792,2.248,6.048l-3.984,80.048L224.44,386.624z M145.872,346.744l2.52,6.904
		L120.024,328h25.912C143.464,334.152,143.384,340.968,145.872,346.744z M392,480H244.464c-6.024,0-11.792-2.24-16.232-6.32
		L86.64,343.704c-1.848-1.672-2.904-3.968-2.968-6.464s0.872-4.832,2.64-6.6c3.384-3.368,8.808-3.528,12.328-0.408l61.52,55.608
		l0.328,0.904l0.48-0.176l65.672,59.368c2.448,2.208,6,2.704,8.944,1.216l80-40C318.288,405.8,320,403.032,320,400v-72h18.584
		l29.992,74.968c1.216,3.04,4.152,5.032,7.424,5.032h16V480z"/>
	<path style="fill:#3C4A53;" d="M24,256h464c4.416,0,8-3.584,8-8c0-119.104-96.896-216-216-216h-16V16h32V0h-80v16h32v16h-16
		C112.896,32,16,128.896,16,248C16,252.416,19.584,256,24,256z M232,48h48c107.6,0,195.632,85.416,199.84,192H32.152
		C36.368,133.416,124.4,48,232,48z"/>
	<path style="fill:#3C4A53;" d="M263.6,99.712l-5.656,5.656l-5.656-5.656c-15.592-15.6-40.976-15.6-56.568,0
		c-15.592,15.592-15.592,40.968,0,56.568l56.568,56.568c1.56,1.56,3.608,2.344,5.656,2.344s4.096-0.784,5.656-2.344l56.568-56.568
		c7.56-7.552,11.72-17.6,11.72-28.288s-4.16-20.728-11.72-28.288C304.568,84.12,279.192,84.128,263.6,99.712z M308.848,144.976
		l-50.912,50.912l-50.912-50.912c-9.352-9.36-9.352-24.584,0-33.944c4.68-4.68,10.824-7.016,16.976-7.016
		c6.144,0,12.296,2.336,16.976,7.016l11.312,11.32c3,3,8.312,3,11.312,0l11.312-11.32c9.352-9.36,24.576-9.368,33.944,0
		c4.536,4.536,7.032,10.56,7.032,16.976S313.384,140.44,308.848,144.976z"/>
	<rect x="440" y="208" style="fill:#3C4A53;" width="16" height="16"/>
	<rect x="408" y="208" style="fill:#3C4A53;" width="16" height="16"/>
	<rect x="376" y="208" style="fill:#3C4A53;" width="16" height="16"/>
</g>
<g>
</g>
<g>
</g>
<g>
</g>
<g>
</g>
<g>
</g>
<g>
</g>
<g>
</g>
<g>
</g>
<g>
</g>
<g>
</g>
<g>
</g>
<g>
</g>
<g>
</g>
<g>
</g>
<g>
</g>
</svg>
